<svg width="23" height="23" viewBox="0 0 23 23" fill="none" xmlns="http://www.w3.org/2000/svg"><g id="surface1">
<path style=" stroke:none;fill-rule:nonzero;fill:rgb(73.333333%,73.333333%,73.333333%);fill-opacity:1;" d="M 19.246094 13.4375 L 22.25 13.4375 C 22.660156 13.4375 23 13.0625 23 12.597656 L 23 0.847656 C 23 0.382812 22.664062 0.0078125 22.25 0.0078125 L 19.246094 0.0078125 C 18.832031 0.0078125 18.496094 0.382812 18.496094 0.847656 L 18.496094 12.597656 C 18.496094 13.0625 18.832031 13.4375 19.246094 13.4375 Z M 19.246094 13.4375 "/>
<path style=" stroke:none;fill-rule:nonzero;fill:rgb(73.333333%,73.333333%,73.333333%);fill-opacity:1;" d="M 7.65625 15.117188 L 6.867188 17.53125 C 6.320312 19.195312 6.675781 21.738281 8.1875 22.644531 C 8.542969 22.855469 8.992188 22.988281 9.425781 22.992188 L 9.460938 22.992188 C 9.621094 22.992188 9.777344 22.972656 9.925781 22.929688 C 10.246094 22.839844 10.523438 22.605469 10.691406 22.289062 C 10.882812 21.925781 10.863281 21.5 10.933594 21.097656 C 11.105469 20.078125 11.535156 19.105469 12.207031 18.375 C 13.371094 17.105469 16.992188 13.4375 16.992188 13.4375 L 16.992188 0.0078125 L 4.476562 0.0078125 C 2.789062 0.0078125 1.683594 2.113281 2.515625 3.761719 C 1.523438 4.472656 1.183594 5.96875 1.765625 7.117188 C 0.773438 7.828125 0.433594 9.328125 1.011719 10.476562 C -0.699219 11.703125 -0.125 14.738281 1.875 15.117188 C 1.996094 15.140625 7.65625 15.117188 7.65625 15.117188 Z M 7.65625 15.117188 "/>
</g>
</svg>
